<svg xmlns="http://www.w3.org/2000/svg" width="100%" viewBox="0 0 680 208" role="img"><title>A combined unit between two normal pieces</title><desc>Three squares of a board: a knight, the Guardian, and a rook, each inside one square.</desc><style>.n{font:500 15px ui-sans-serif,system-ui,sans-serif;fill:var(--p,#2b2a27);text-anchor:middle}.s{font:400 12px ui-sans-serif,system-ui,sans-serif;fill:var(--s,#6b6862);text-anchor:middle}.sl{font:400 12px ui-sans-serif,system-ui,sans-serif;fill:var(--s,#6b6862)}.op{font:400 17px ui-sans-serif,system-ui,sans-serif;fill:var(--s,#6b6862);text-anchor:middle}</style><defs><g id="knight-w"><ellipse cx="50" cy="91" rx="30" ry="5" fill="rgba(0,0,0,.3)"/><ellipse cx="50" cy="86" rx="24" ry="7" fill="#F5C443" stroke="#3A2614" stroke-width="3.5"/><path d="M22 90 L20 82 M26 90 L26 80 M30 90 L32 82" fill="none" stroke="#3A2614" stroke-width="6.5" stroke-linecap="round" stroke-linejoin="round"/><path d="M22 90 L20 82 M26 90 L26 80 M30 90 L32 82" fill="none" stroke="#6CC04A" stroke-width="2.5" stroke-linecap="round" stroke-linejoin="round"/><path d="M70 90 L68 82 M74 90 L74 80 M78 90 L80 82" fill="none" stroke="#3A2614" stroke-width="6.5" stroke-linecap="round" stroke-linejoin="round"/><path d="M70 90 L68 82 M74 90 L74 80 M78 90 L80 82" fill="none" stroke="#6CC04A" stroke-width="2.5" stroke-linecap="round" stroke-linejoin="round"/><circle cx="76" cy="79" r="4.2" fill="#FF9EC4" stroke="#3A2614" stroke-width="1.8"/><circle cx="76" cy="79" r="1.7" fill="#FFD84D"/><g fill="none" stroke="rgba(35,22,8,.55)" stroke-width="11" stroke-linejoin="round"><path d="M29 86 C28 82 28 78 30 75 C28 66 28 57 32 50 C30 39 35 27 44 23 L47 11 L56 21 C69 24 78 36 77 50 C76 58 69 61 63 58 C61 65 67 74 72 86 Z"/></g><g fill="#E1ECFF" stroke="#3A2614" stroke-width="4" stroke-linejoin="round"><path d="M29 86 C27 71 32 59 38 51 C32 44 34 30 44 23 L47 11 L56 21 C69 24 78 36 77 50 C76 58 69 61 63 58 C61 65 67 74 72 86 Z"/></g><ellipse cx="39" cy="75" rx="4" ry="7" fill="#fff" opacity="0.45" transform="rotate(18 39 75)"/><path d="M44 23 C35 27 30 39 32 50 C28 57 28 66 30 75 L37 70 C35 62 36 55 40 50 C37 41 39 31 47 27 Z" fill="#BFD2F2" stroke="#3A2614" stroke-width="3" stroke-linejoin="round"/><circle cx="72" cy="50" r="2.3" fill="#3A2614"/><ellipse cx="64" cy="45" rx="3.8" ry="2.3" fill="#FF8FA3" opacity=".6"/><circle cx="57" cy="35.5" r="3.1" fill="#2A1A10"/><circle cx="58.1" cy="34.1" r="1.1" fill="#fff"/></g><g id="rook-w-ground"><ellipse cx="50" cy="91" rx="30" ry="5" fill="rgba(0,0,0,.3)"/><ellipse cx="50" cy="86" rx="24" ry="7" fill="#F5C443" stroke="#3A2614" stroke-width="3.5"/><path d="M22 90 L20 82 M26 90 L26 80 M30 90 L32 82" fill="none" stroke="#3A2614" stroke-width="6.5" stroke-linecap="round" stroke-linejoin="round"/><path d="M22 90 L20 82 M26 90 L26 80 M30 90 L32 82" fill="none" stroke="#6CC04A" stroke-width="2.5" stroke-linecap="round" stroke-linejoin="round"/><path d="M70 90 L68 82 M74 90 L74 80 M78 90 L80 82" fill="none" stroke="#3A2614" stroke-width="6.5" stroke-linecap="round" stroke-linejoin="round"/><path d="M70 90 L68 82 M74 90 L74 80 M78 90 L80 82" fill="none" stroke="#6CC04A" stroke-width="2.5" stroke-linecap="round" stroke-linejoin="round"/><circle cx="76" cy="79" r="4.2" fill="#FF9EC4" stroke="#3A2614" stroke-width="1.8"/><circle cx="76" cy="79" r="1.7" fill="#FFD84D"/></g><g id="rook-w-halo"><g fill="rgb(35,22,8)" stroke="rgb(35,22,8)" stroke-width="7.50" stroke-linejoin="round"><path d="M 27 54.50 L 27 38.40 L 38 38.40 L 38 44.70 L 45 44.70 L 45 38.40 L 55 38.40 L 55 44.70 L 62 44.70 L 62 38.40 L 73 38.40 L 73 54.50 L 67 58.00 L 69 86.00 L 31 86.00 L 33 58.00 Z"/></g><ellipse cx="38" cy="69.90" rx="4" ry="4.90" fill="rgb(35,22,8)" opacity="0.45" transform="rotate(18 38 63)"/><path d="M 33 58.00 H 67" stroke="rgb(35,22,8)" stroke-width="7.50"/><path d="M 43 86.00 L 43 79.70 A 7 4.90 0 0 1 57 79.70 L 57 86.00 Z" fill="rgb(35,22,8)" stroke="rgb(35,22,8)" stroke-width="7.50"/><ellipse cx="38" cy="69.90" rx="3.8" ry="1.61" fill="rgb(35,22,8)" opacity=".6"/><ellipse cx="62" cy="69.90" rx="3.8" ry="1.61" fill="rgb(35,22,8)" opacity=".6"/><circle cx="43" cy="66.05" r="3.1" fill="rgb(35,22,8)"/><circle cx="44.1" cy="65.07" r="1.1" fill="rgb(35,22,8)"/><circle cx="57" cy="66.05" r="3.1" fill="rgb(35,22,8)"/><circle cx="58.1" cy="65.07" r="1.1" fill="rgb(35,22,8)"/></g><g id="rider-knight-w-halo"><g fill="rgb(35,22,8)" stroke="rgb(35,22,8)" stroke-width="8.65" stroke-linejoin="round"><path d="M29 86 C27 71 32 59 38 51 C32 44 34 30 44 23 L47 11 L56 21 C69 24 78 36 77 50 C76 58 69 61 63 58 C61 65 67 74 72 86 Z"/></g><ellipse cx="39" cy="75" rx="4" ry="7" fill="rgb(35,22,8)" opacity="0.45" transform="rotate(18 39 75)"/><path d="M44 23 C35 27 30 39 32 50 C28 57 28 66 30 75 L37 70 C35 62 36 55 40 50 C37 41 39 31 47 27 Z" fill="rgb(35,22,8)" stroke="rgb(35,22,8)" stroke-width="8.65" stroke-linejoin="round"/><circle cx="72" cy="50" r="2.3" fill="rgb(35,22,8)"/><ellipse cx="64" cy="45" rx="3.8" ry="2.3" fill="rgb(35,22,8)" opacity=".6"/><circle cx="57" cy="35.5" r="3.1" fill="rgb(35,22,8)"/><circle cx="58.1" cy="34.1" r="1.1" fill="rgb(35,22,8)"/></g><g id="rider-knight-w-body"><g fill="#E1ECFF" stroke="#3A2614" stroke-width="4.62" stroke-linejoin="round"><path d="M29 86 C27 71 32 59 38 51 C32 44 34 30 44 23 L47 11 L56 21 C69 24 78 36 77 50 C76 58 69 61 63 58 C61 65 67 74 72 86 Z"/></g><ellipse cx="39" cy="75" rx="4" ry="7" fill="#fff" opacity="0.45" transform="rotate(18 39 75)"/><path d="M44 23 C35 27 30 39 32 50 C28 57 28 66 30 75 L37 70 C35 62 36 55 40 50 C37 41 39 31 47 27 Z" fill="#BFD2F2" stroke="#3A2614" stroke-width="3.46" stroke-linejoin="round"/><circle cx="72" cy="50" r="2.3" fill="#3A2614"/><ellipse cx="64" cy="45" rx="3.8" ry="2.3" fill="#FF8FA3" opacity=".6"/><circle cx="57" cy="35.5" r="3.1" fill="#2A1A10"/><circle cx="58.1" cy="34.1" r="1.1" fill="#fff"/></g><g id="rook-w-body"><g fill="#FFE3D0" stroke="#3A2614" stroke-width="4" stroke-linejoin="round"><path d="M 27 54.50 L 27 38.40 L 38 38.40 L 38 44.70 L 45 44.70 L 45 38.40 L 55 38.40 L 55 44.70 L 62 44.70 L 62 38.40 L 73 38.40 L 73 54.50 L 67 58.00 L 69 86.00 L 31 86.00 L 33 58.00 Z"/></g><ellipse cx="38" cy="69.90" rx="4" ry="4.90" fill="#fff" opacity="0.45" transform="rotate(18 38 63)"/><path d="M 33 58.00 H 67" stroke="#3A2614" stroke-width="3"/><path d="M 43 86.00 L 43 79.70 A 7 4.90 0 0 1 57 79.70 L 57 86.00 Z" fill="#EEC1A0" stroke="#3A2614" stroke-width="3"/><ellipse cx="38" cy="69.90" rx="3.8" ry="1.61" fill="#FF8FA3" opacity=".6"/><ellipse cx="62" cy="69.90" rx="3.8" ry="1.61" fill="#FF8FA3" opacity=".6"/><circle cx="43" cy="66.05" r="3.1" fill="#2A1A10"/><circle cx="44.1" cy="65.07" r="1.1" fill="#fff"/><circle cx="57" cy="66.05" r="3.1" fill="#2A1A10"/><circle cx="58.1" cy="65.07" r="1.1" fill="#fff"/></g><g id="rook-w"><ellipse cx="50" cy="91" rx="30" ry="5" fill="rgba(0,0,0,.3)"/><ellipse cx="50" cy="86" rx="24" ry="7" fill="#F5C443" stroke="#3A2614" stroke-width="3.5"/><path d="M22 90 L20 82 M26 90 L26 80 M30 90 L32 82" fill="none" stroke="#3A2614" stroke-width="6.5" stroke-linecap="round" stroke-linejoin="round"/><path d="M22 90 L20 82 M26 90 L26 80 M30 90 L32 82" fill="none" stroke="#6CC04A" stroke-width="2.5" stroke-linecap="round" stroke-linejoin="round"/><path d="M70 90 L68 82 M74 90 L74 80 M78 90 L80 82" fill="none" stroke="#3A2614" stroke-width="6.5" stroke-linecap="round" stroke-linejoin="round"/><path d="M70 90 L68 82 M74 90 L74 80 M78 90 L80 82" fill="none" stroke="#6CC04A" stroke-width="2.5" stroke-linecap="round" stroke-linejoin="round"/><circle cx="76" cy="79" r="4.2" fill="#FF9EC4" stroke="#3A2614" stroke-width="1.8"/><circle cx="76" cy="79" r="1.7" fill="#FFD84D"/><g fill="none" stroke="rgba(35,22,8,.55)" stroke-width="11" stroke-linejoin="round"><path d="M27 41 L27 18 L38 18 L38 27 L45 27 L45 18 L55 18 L55 27 L62 27 L62 18 L73 18 L73 41 L67 46 L69 86 L31 86 L33 46 Z"/></g><g fill="#FFE3D0" stroke="#3A2614" stroke-width="4" stroke-linejoin="round"><path d="M27 41 L27 18 L38 18 L38 27 L45 27 L45 18 L55 18 L55 27 L62 27 L62 18 L73 18 L73 41 L67 46 L69 86 L31 86 L33 46 Z"/></g><ellipse cx="38" cy="63" rx="4" ry="7" fill="#fff" opacity="0.45" transform="rotate(18 38 63)"/><path d="M33 46 H67" stroke="#3A2614" stroke-width="3"/><path d="M43 86 L43 77 A7 7 0 0 1 57 77 L57 86 Z" fill="#EEC1A0" stroke="#3A2614" stroke-width="3"/><ellipse cx="38" cy="63" rx="3.8" ry="2.3" fill="#FF8FA3" opacity=".6"/><ellipse cx="62" cy="63" rx="3.8" ry="2.3" fill="#FF8FA3" opacity=".6"/><circle cx="43" cy="57.5" r="3.1" fill="#2A1A10"/><circle cx="44.1" cy="56.1" r="1.1" fill="#fff"/><circle cx="57" cy="57.5" r="3.1" fill="#2A1A10"/><circle cx="58.1" cy="56.1" r="1.1" fill="#fff"/></g></defs><g transform="translate(115,10) scale(1.25)"><rect width="120" height="120" fill="#7a9e4c"/><use href="#knight-w" transform="translate(8.50,8.50) scale(1.030)"/></g><text x="190" y="188" class="s">Knight</text><g transform="translate(265,10) scale(1.25)"><rect width="120" height="120" fill="#4a6e28"/><use href="#rook-w-ground" transform="translate(13.65,17.36) scale(0.927)"/><g opacity=".55"><use href="#rook-w-halo" transform="translate(13.65,17.36) scale(0.927)"/><use href="#rider-knight-w-halo" transform="translate(19.82,4.72) scale(0.803)"/></g><use href="#rider-knight-w-body" transform="translate(19.82,4.72) scale(0.803)"/><use href="#rook-w-body" transform="translate(13.65,17.36) scale(0.927)"/></g><text x="340" y="188" class="s">Guardian</text><g transform="translate(415,10) scale(1.25)"><rect width="120" height="120" fill="#7a9e4c"/><use href="#rook-w" transform="translate(8.50,8.50) scale(1.030)"/></g><text x="490" y="188" class="s">Rook</text></svg>